<?xml version="1.0" encoding="UTF-8" standalone="no"?>
<!-- Created with Inkscape (http://www.inkscape.org/) -->
<svg
   xmlns:dc="http://purl.org/dc/elements/1.1/"
   xmlns:cc="http://creativecommons.org/ns#"
   xmlns:rdf="http://www.w3.org/1999/02/22-rdf-syntax-ns#"
   xmlns:svg="http://www.w3.org/2000/svg"
   xmlns="http://www.w3.org/2000/svg"
   xmlns:sodipodi="http://sodipodi.sourceforge.net/DTD/sodipodi-0.dtd"
   xmlns:inkscape="http://www.inkscape.org/namespaces/inkscape"
   width="150.71428"
   height="100"
   id="svg2"
   sodipodi:version="0.32"
   inkscape:version="0.46"
   sodipodi:docname="ChiNode.svg"
   inkscape:output_extension="org.inkscape.output.svg.inkscape"
   version="1.0">
  <defs
     id="defs4">
    <inkscape:perspective
       sodipodi:type="inkscape:persp3d"
       inkscape:vp_x="0 : 526.18109 : 1"
       inkscape:vp_y="0 : 1000 : 0"
       inkscape:vp_z="744.09448 : 526.18109 : 1"
       inkscape:persp3d-origin="372.04724 : 350.78739 : 1"
       id="perspective10" />
    <inkscape:perspective
       id="perspective20"
       inkscape:persp3d-origin="372.04724 : 350.78739 : 1"
       inkscape:vp_z="744.09448 : 526.18109 : 1"
       inkscape:vp_y="0 : 1000 : 0"
       inkscape:vp_x="0 : 526.18109 : 1"
       sodipodi:type="inkscape:persp3d" />
    <inkscape:perspective
       sodipodi:type="inkscape:persp3d"
       inkscape:vp_x="0 : 17.627953 : 1"
       inkscape:vp_y="0 : 1000 : 0"
       inkscape:vp_z="25.653542 : 17.627953 : 1"
       inkscape:persp3d-origin="12.826771 : 11.751968 : 1"
       id="perspective2569" />
    <inkscape:perspective
       sodipodi:type="inkscape:persp3d"
       inkscape:vp_x="0 : 526.18109 : 1"
       inkscape:vp_y="0 : 1000 : 0"
       inkscape:vp_z="744.09448 : 526.18109 : 1"
       inkscape:persp3d-origin="372.04724 : 350.78739 : 1"
       id="perspective2515" />
    <inkscape:perspective
       sodipodi:type="inkscape:persp3d"
       inkscape:vp_x="0 : 29.179132 : 1"
       inkscape:vp_y="0 : 1000 : 0"
       inkscape:vp_z="31.783466 : 29.179132 : 1"
       inkscape:persp3d-origin="15.891733 : 19.452755 : 1"
       id="perspective2467" />
    <inkscape:perspective
       sodipodi:type="inkscape:persp3d"
       inkscape:vp_x="0 : 17.627953 : 1"
       inkscape:vp_y="0 : 1000 : 0"
       inkscape:vp_z="25.653542 : 17.627953 : 1"
       inkscape:persp3d-origin="12.826771 : 11.751968 : 1"
       id="perspective2414" />
    <inkscape:perspective
       id="perspective3088"
       inkscape:persp3d-origin="372.04724 : 350.78739 : 1"
       inkscape:vp_z="744.09448 : 526.18109 : 1"
       inkscape:vp_y="0 : 1000 : 0"
       inkscape:vp_x="0 : 526.18109 : 1"
       sodipodi:type="inkscape:persp3d" />
  </defs>
  <sodipodi:namedview
     id="base"
     pagecolor="#ffffff"
     bordercolor="#666666"
     borderopacity="1.0"
     inkscape:pageopacity="0.0"
     inkscape:pageshadow="2"
     inkscape:zoom="0.49497475"
     inkscape:cx="43.905109"
     inkscape:cy="411.64381"
     inkscape:document-units="px"
     inkscape:current-layer="layer1"
     showgrid="false"
     inkscape:window-width="1400"
     inkscape:window-height="960"
     inkscape:window-x="-4"
     inkscape:window-y="-4" />
  <metadata
     id="metadata7">
    <rdf:RDF>
      <cc:Work
         rdf:about="">
        <dc:format>image/svg+xml</dc:format>
        <dc:type
           rdf:resource="http://purl.org/dc/dcmitype/StillImage" />
      </cc:Work>
    </rdf:RDF>
  </metadata>
  <g
     inkscape:label="Ebene 1"
     inkscape:groupmode="layer"
     id="layer1"
     transform="translate(-1.1894195,-130.14648)">
    <rect
       style="opacity:1;fill:#000000"
       id="rect2452"
       width="150.71428"
       height="100"
       x="3.2097275"
       y="132.16679" />
    <rect
       style="opacity:1;fill:#ffffff"
       id="rect2454"
       width="147.85715"
       height="45.714287"
       x="4.6382861"
       y="133.59537" />
    <rect
       style="opacity:1;fill:#ffffff"
       id="rect2456"
       width="147.85715"
       height="36.428574"
       x="4.2811389"
       y="193.59537" />
    <rect
       style="opacity:1;fill:#ffffff"
       id="rect2458"
       width="147.85715"
       height="8.5714293"
       x="4.9954181"
       y="182.16678" />
    <path
       sodipodi:type="arc"
       style="opacity:1;fill:#000000"
       id="path3030"
       sodipodi:cx="82.85714"
       sodipodi:cy="117.00504"
       sodipodi:rx="45"
       sodipodi:ry="41.785713"
       d="M 127.85714,117.00504 A 45,41.785713 0 1 1 37.85714,117.00504 A 45,41.785713 0 1 1 127.85714,117.00504 z"
       transform="matrix(0.1444444,0,0,0.1555556,129.94132,125.10684)" />
    <path
       sodipodi:type="arc"
       style="opacity:1;fill:#ffffff"
       id="path3032"
       sodipodi:cx="82.453705"
       sodipodi:cy="124.4108"
       sodipodi:rx="13.005714"
       sodipodi:ry="12.500638"
       d="M 95.459419,124.4108 A 13.005714,12.500638 0 1 1 69.44799,124.4108 A 13.005714,12.500638 0 1 1 95.459419,124.4108 z"
       transform="matrix(0.4233139,0,0,0.4399775,106.97231,88.542772)" />
    <g
       transform="matrix(4.2542923e-2,0,0,5.4056684e-2,140.00486,89.985222)"
       id="g3094"
       inkscape:label="Ebene 1">
      <g
         id="g2417">
        <path
           style="fill:none;stroke:none"
           d=""
           id="path2405" />
        <path
           style="fill:#000000;fill-opacity:1;fill-rule:evenodd;stroke:none"
           d=""
           id="path2407" />
      </g>
      <g
         id="g2572">
        <path
           style="fill:none;stroke:none"
           d=""
           id="path2560" />
        <path
           style="fill:#000000;fill-opacity:1;fill-rule:evenodd;stroke:none"
           d=""
           id="path2562" />
      </g>
      <path
         id="text2921"
         d="M 70.626694,914.16183 L 88.436014,914.16183 L 51.392604,987.02738 L 58.109284,1015.4206 C 60.348094,1024.851 62.943184,1030.8213 65.894494,1033.3316 C 68.845694,1035.8419 72.424494,1037.097 76.630964,1037.097 C 86.536264,1037.097 91.828164,1031.3302 92.506714,1019.7966 L 96.272114,1019.7966 C 96.136314,1029.9055 94.168834,1037.8603 90.369594,1043.6611 C 86.570194,1049.4618 81.447894,1052.3621 75.002674,1052.3622 C 69.371494,1052.3621 64.893704,1050.5642 61.569374,1046.9685 C 58.244904,1043.3727 55.293644,1036.2489 52.715604,1025.5973 L 45.99892,997.3059 L 18.82698,1051.9551 L 1.01767,1051.9551 L 40.40172,973.69583 L 34.70273,949.6787 C 32.59952,940.92674 30.4963,935.00726 28.39314,931.92025 C 26.28992,928.83337 22.99943,927.28991 18.5217,927.28982 C 10.5838,927.28991 5.66506,933.32812 3.7654,945.40447 L -5.116079e-19,945.40447 C -5.116079e-19,935.90622 1.64524,928.08708 4.93573,921.94704 C 8.22619,915.80716 13.128,912.73717 19.64112,912.73708 C 25.27225,912.73717 29.49559,914.80646 32.3112,918.9449 C 35.12672,923.08353 37.82356,930.5804 40.40172,941.43552 L 45.69362,963.41731 L 70.626694,914.16183 z"
         style="font-size:40px;font-style:normal;font-weight:normal;line-height:125%;fill:#000000;fill-opacity:1;stroke:none;stroke-width:1px;stroke-linecap:butt;stroke-linejoin:miter;stroke-opacity:1;font-family:Bitstream Vera Sans" />
    </g>
    <rect
       style="opacity:1;fill:#000000"
       id="rect3123"
       width="12.121831"
       height="1.767767"
       x="135.86552"
       y="150.04343" />
  </g>
</svg>
