<?xml version="1.0" encoding="UTF-8" standalone="no"?>
<!-- Created with Inkscape (http://www.inkscape.org/) -->
<svg
   xmlns:dc="http://purl.org/dc/elements/1.1/"
   xmlns:cc="http://creativecommons.org/ns#"
   xmlns:rdf="http://www.w3.org/1999/02/22-rdf-syntax-ns#"
   xmlns:svg="http://www.w3.org/2000/svg"
   xmlns="http://www.w3.org/2000/svg"
   xmlns:sodipodi="http://sodipodi.sourceforge.net/DTD/sodipodi-0.dtd"
   xmlns:inkscape="http://www.inkscape.org/namespaces/inkscape"
   id="svg5552"
   sodipodi:version="0.32"
   inkscape:version="0.46"
   width="52"
   height="50"
   version="1.0"
   sodipodi:docname="ChiWorkerExternal.svg"
   inkscape:output_extension="org.inkscape.output.svg.inkscape">
  <metadata
     id="metadata5557">
    <rdf:RDF>
      <cc:Work
         rdf:about="">
        <dc:format>image/svg+xml</dc:format>
        <dc:type
           rdf:resource="http://purl.org/dc/dcmitype/StillImage" />
      </cc:Work>
    </rdf:RDF>
  </metadata>
  <defs
     id="defs5555">
    <inkscape:perspective
       sodipodi:type="inkscape:persp3d"
       inkscape:vp_x="0 : 526.18109 : 1"
       inkscape:vp_y="0 : 1000 : 0"
       inkscape:vp_z="744.09448 : 526.18109 : 1"
       inkscape:persp3d-origin="372.04724 : 350.78739 : 1"
       id="perspective5559" />
    <inkscape:perspective
       sodipodi:type="inkscape:persp3d"
       inkscape:vp_x="0 : 17.627953 : 1"
       inkscape:vp_y="0 : 1000 : 0"
       inkscape:vp_z="25.653542 : 17.627953 : 1"
       inkscape:persp3d-origin="12.826771 : 11.751968 : 1"
       id="perspective2569" />
    <inkscape:perspective
       sodipodi:type="inkscape:persp3d"
       inkscape:vp_x="0 : 526.18109 : 1"
       inkscape:vp_y="0 : 1000 : 0"
       inkscape:vp_z="744.09448 : 526.18109 : 1"
       inkscape:persp3d-origin="372.04724 : 350.78739 : 1"
       id="perspective2515" />
    <inkscape:perspective
       sodipodi:type="inkscape:persp3d"
       inkscape:vp_x="0 : 29.179132 : 1"
       inkscape:vp_y="0 : 1000 : 0"
       inkscape:vp_z="31.783466 : 29.179132 : 1"
       inkscape:persp3d-origin="15.891733 : 19.452755 : 1"
       id="perspective2467" />
    <inkscape:perspective
       sodipodi:type="inkscape:persp3d"
       inkscape:vp_x="0 : 17.627953 : 1"
       inkscape:vp_y="0 : 1000 : 0"
       inkscape:vp_z="25.653542 : 17.627953 : 1"
       inkscape:persp3d-origin="12.826771 : 11.751968 : 1"
       id="perspective2414" />
    <inkscape:perspective
       id="perspective10"
       inkscape:persp3d-origin="372.04724 : 350.78739 : 1"
       inkscape:vp_z="744.09448 : 526.18109 : 1"
       inkscape:vp_y="0 : 1000 : 0"
       inkscape:vp_x="0 : 526.18109 : 1"
       sodipodi:type="inkscape:persp3d" />
  </defs>
  <sodipodi:namedview
     inkscape:window-height="960"
     inkscape:window-width="1400"
     inkscape:pageshadow="2"
     inkscape:pageopacity="0.0"
     guidetolerance="10.0"
     gridtolerance="10.0"
     objecttolerance="10.0"
     borderopacity="1.0"
     bordercolor="#666666"
     pagecolor="#ffffff"
     id="base"
     showgrid="false"
     inkscape:zoom="9.24"
     inkscape:cx="26"
     inkscape:cy="27.837555"
     inkscape:window-x="0"
     inkscape:window-y="56"
     inkscape:current-layer="svg5552" />
  <path
     sodipodi:type="arc"
     style="opacity:1;fill:#000000"
     id="path5482"
     sodipodi:cx="27.406927"
     sodipodi:cy="26.337662"
     sodipodi:rx="24.255411"
     sodipodi:ry="20.259741"
     d="M 51.662338,26.337662 A 24.255411,20.259741 0 1 1 3.151516,26.337662 A 24.255411,20.259741 0 1 1 51.662338,26.337662 z"
     transform="matrix(1.0425221,0,0,1.2317845,-2.003064,-7.1717617)" />
  <path
     sodipodi:type="arc"
     style="opacity:1;fill:#ffffff"
     id="path5484"
     sodipodi:cx="26.168831"
     sodipodi:cy="27.294373"
     sodipodi:rx="22.904762"
     sodipodi:ry="22.341991"
     d="M 49.073593,27.294373 A 22.904762,22.341991 0 1 1 3.2640686,27.294373 A 22.904762,22.341991 0 1 1 49.073593,27.294373 z"
     transform="matrix(1.0434714,0,0,1.0557454,-0.459897,-3.8189778)" />
  <path
     style="fill:none;fill-rule:evenodd;stroke:#000000;stroke-width:0.97889268px;stroke-linecap:butt;stroke-linejoin:miter;stroke-opacity:1"
     d="M 26.236543,18.37493 L 26.458358,32.056748"
     id="path5486"
     inkscape:connector-type="polyline" />
  <path
     style="fill:none;fill-rule:evenodd;stroke:#000000;stroke-width:0.97889268px;stroke-linecap:butt;stroke-linejoin:miter;stroke-opacity:1"
     d="M 33.667315,41.798201 L 26.458358,31.728383"
     id="path5488"
     inkscape:connector-type="polyline" />
  <path
     style="fill:none;fill-rule:evenodd;stroke:#000000;stroke-width:0.97889268px;stroke-linecap:butt;stroke-linejoin:miter;stroke-opacity:1"
     d="M 19.138494,42.017111 L 26.569265,31.509474"
     id="path5490"
     inkscape:connector-type="polyline" />
  <path
     style="fill:none;fill-rule:evenodd;stroke:#000000;stroke-width:0.97889268px;stroke-linecap:butt;stroke-linejoin:miter;stroke-opacity:1"
     d="M 17.363982,21.986928 L 34.443665,21.76802"
     id="path5492"
     inkscape:connector-type="polyline" />
  <path
     sodipodi:type="arc"
     style="opacity:1;fill:#000000"
     id="path5494"
     sodipodi:cx="25.943724"
     sodipodi:cy="12.324676"
     sodipodi:rx="6.9220781"
     sodipodi:ry="7.1471863"
     d="M 32.865802,12.324676 A 6.9220781,7.1471863 0 1 1 19.021646,12.324676 A 6.9220781,7.1471863 0 1 1 32.865802,12.324676 z"
     transform="matrix(1.0734886,0,0,0.9724615,-1.613745,0.3149298)" />
  <path
     sodipodi:type="arc"
     style="opacity:1;fill:#ffffff"
     id="path5496"
     sodipodi:cx="26.056276"
     sodipodi:cy="12.549784"
     sodipodi:rx="5.2337661"
     sodipodi:ry="5.5714288"
     d="M 31.290042,12.549784 A 5.2337661,5.5714288 0 1 1 20.82251,12.549784 A 5.2337661,5.5714288 0 1 1 31.290042,12.549784 z"
     transform="matrix(1.1442964,0,0,0.9724615,-3.468654,-1.3434486e-2)" />
  <path
     style="fill:none;fill-rule:evenodd;stroke:#000000;stroke-width:1px;stroke-linecap:butt;stroke-linejoin:miter;stroke-opacity:1"
     d="M 1.731602,1.1904762 L 1.515151,45.238095"
     id="path5571"
     inkscape:connector-type="polyline" />
  <g
     transform="matrix(6.1255605e-2,0,0,5.0209029e-2,23.325429,-37.178589)"
     id="layer1"
     inkscape:label="Ebene 1">
    <g
       id="g2417">
      <path
         style="fill:none;stroke:none"
         d=""
         id="path2405" />
      <path
         style="fill:#000000;fill-opacity:1;fill-rule:evenodd;stroke:none"
         d=""
         id="path2407" />
    </g>
    <g
       id="g2572">
      <path
         style="fill:none;stroke:none"
         d=""
         id="path2560" />
      <path
         style="fill:#000000;fill-opacity:1;fill-rule:evenodd;stroke:none"
         d=""
         id="path2562" />
    </g>
    <path
       id="text2921"
       d="M 70.626694,914.16183 L 88.436014,914.16183 L 51.392604,987.02738 L 58.109284,1015.4206 C 60.348094,1024.851 62.943184,1030.8213 65.894494,1033.3316 C 68.845694,1035.8419 72.424494,1037.097 76.630964,1037.097 C 86.536264,1037.097 91.828164,1031.3302 92.506714,1019.7966 L 96.272114,1019.7966 C 96.136314,1029.9055 94.168834,1037.8603 90.369594,1043.6611 C 86.570194,1049.4618 81.447894,1052.3621 75.002674,1052.3622 C 69.371494,1052.3621 64.893704,1050.5642 61.569374,1046.9685 C 58.244904,1043.3727 55.293644,1036.2489 52.715604,1025.5973 L 45.99892,997.3059 L 18.82698,1051.9551 L 1.01767,1051.9551 L 40.40172,973.69583 L 34.70273,949.6787 C 32.59952,940.92674 30.4963,935.00726 28.39314,931.92025 C 26.28992,928.83337 22.99943,927.28991 18.5217,927.28982 C 10.5838,927.28991 5.66506,933.32812 3.7654,945.40447 L -5.116079e-19,945.40447 C -5.116079e-19,935.90622 1.64524,928.08708 4.93573,921.94704 C 8.22619,915.80716 13.128,912.73717 19.64112,912.73708 C 25.27225,912.73717 29.49559,914.80646 32.3112,918.9449 C 35.12672,923.08353 37.82356,930.5804 40.40172,941.43552 L 45.69362,963.41731 L 70.626694,914.16183 z"
       style="font-size:40px;font-style:normal;font-weight:normal;line-height:125%;fill:#000000;fill-opacity:1;stroke:none;stroke-width:1px;stroke-linecap:butt;stroke-linejoin:miter;stroke-opacity:1;font-family:Bitstream Vera Sans" />
  </g>
</svg>
