<?xml version="1.0" encoding="UTF-8" standalone="no"?>
<!-- Created with Inkscape (http://www.inkscape.org/) -->
<svg
   xmlns:dc="http://purl.org/dc/elements/1.1/"
   xmlns:cc="http://creativecommons.org/ns#"
   xmlns:rdf="http://www.w3.org/1999/02/22-rdf-syntax-ns#"
   xmlns:svg="http://www.w3.org/2000/svg"
   xmlns="http://www.w3.org/2000/svg"
   xmlns:sodipodi="http://sodipodi.sourceforge.net/DTD/sodipodi-0.dtd"
   xmlns:inkscape="http://www.inkscape.org/namespaces/inkscape"
   id="svg5043"
   sodipodi:version="0.32"
   inkscape:version="0.46"
   width="95"
   height="60"
   version="1.0"
   sodipodi:docname="Activity.svg"
   inkscape:output_extension="org.inkscape.output.svg.inkscape">
  <metadata
     id="metadata5048">
    <rdf:RDF>
      <cc:Work
         rdf:about="">
        <dc:format>image/svg+xml</dc:format>
        <dc:type
           rdf:resource="http://purl.org/dc/dcmitype/StillImage" />
      </cc:Work>
    </rdf:RDF>
  </metadata>
  <defs
     id="defs5046">
    <inkscape:perspective
       sodipodi:type="inkscape:persp3d"
       inkscape:vp_x="0 : 526.18109 : 1"
       inkscape:vp_y="0 : 1000 : 0"
       inkscape:vp_z="744.09448 : 526.18109 : 1"
       inkscape:persp3d-origin="372.04724 : 350.78739 : 1"
       id="perspective5050" />
  </defs>
  <sodipodi:namedview
     inkscape:window-height="960"
     inkscape:window-width="1400"
     inkscape:pageshadow="2"
     inkscape:pageopacity="0.0"
     guidetolerance="10.0"
     gridtolerance="10.0"
     objecttolerance="10.0"
     borderopacity="1.0"
     bordercolor="#666666"
     pagecolor="#ffffff"
     id="base"
     showgrid="false"
     inkscape:zoom="5.6568543"
     inkscape:cx="24.420721"
     inkscape:cy="57.493513"
     inkscape:window-x="-4"
     inkscape:window-y="-4"
     inkscape:current-layer="svg5043" />
  <path
     sodipodi:type="arc"
     style="opacity:1;fill:#000000"
     id="path5054"
     sodipodi:cx="21.486168"
     sodipodi:cy="16.317635"
     sodipodi:rx="19.448687"
     sodipodi:ry="10.465245"
     d="M 40.934855,16.317635 A 19.448687,10.465245 0 1 1 2.0374813,16.317635 A 19.448687,10.465245 0 1 1 40.934855,16.317635 z"
     transform="matrix(0.5952381,0,0,1.1651917,-0.1951831,-6.0029526)" />
  <path
     sodipodi:type="arc"
     style="opacity:1;fill:#ffffff"
     id="path5058"
     sodipodi:cx="21.486168"
     sodipodi:cy="16.317635"
     sodipodi:rx="19.448687"
     sodipodi:ry="10.465245"
     d="M 40.934855,16.317635 A 19.448687,10.465245 0 1 1 2.0374813,16.317635 A 19.448687,10.465245 0 1 1 40.934855,16.317635 z"
     transform="matrix(0.5952381,0,0,1.1651917,0.7496292,-5.0017597)" />
  <path
     sodipodi:type="arc"
     style="opacity:1;fill:#000000"
     id="path5060"
     sodipodi:cx="21.486168"
     sodipodi:cy="16.317635"
     sodipodi:rx="19.448687"
     sodipodi:ry="10.465245"
     d="M 40.934855,16.317635 A 19.448687,10.465245 0 1 1 2.0374813,16.317635 A 19.448687,10.465245 0 1 1 40.934855,16.317635 z"
     transform="matrix(0.5952381,0,0,1.167831,69.265675,-5.9335201)" />
  <path
     sodipodi:type="arc"
     style="opacity:1;fill:#000000"
     id="path5064"
     sodipodi:cx="21.486168"
     sodipodi:cy="16.317635"
     sodipodi:rx="19.448687"
     sodipodi:ry="10.465245"
     d="M 40.934855,16.317635 A 19.448687,10.465245 0 1 1 2.0374813,16.317635 A 19.448687,10.465245 0 1 1 40.934855,16.317635 z"
     transform="matrix(0.5952381,0,0,1.1651917,69.499617,28.608274)" />
  <path
     sodipodi:type="arc"
     style="opacity:1;fill:#ffffff"
     id="path5066"
     sodipodi:cx="21.486168"
     sodipodi:cy="16.317635"
     sodipodi:rx="19.448687"
     sodipodi:ry="10.465245"
     d="M 40.934855,16.317635 A 19.448687,10.465245 0 1 1 2.0374813,16.317635 A 19.448687,10.465245 0 1 1 40.934855,16.317635 z"
     transform="matrix(0.5952381,0,0,1.1651917,68.701392,27.736836)" />
  <path
     sodipodi:type="arc"
     style="opacity:1;fill:#000000"
     id="path5068"
     sodipodi:cx="21.486168"
     sodipodi:cy="16.317635"
     sodipodi:rx="19.448687"
     sodipodi:ry="10.465245"
     d="M 40.934855,16.317635 A 19.448687,10.465245 0 1 1 2.0374813,16.317635 A 19.448687,10.465245 0 1 1 40.934855,16.317635 z"
     transform="matrix(0.5952381,0,0,1.1651917,-0.1477399,28.65389)" />
  <path
     sodipodi:type="arc"
     style="opacity:1;fill:#ffffff"
     id="path5070"
     sodipodi:cx="21.486168"
     sodipodi:cy="16.317635"
     sodipodi:rx="19.448687"
     sodipodi:ry="10.465245"
     d="M 40.934855,16.317635 A 19.448687,10.465245 0 1 1 2.0374813,16.317635 A 19.448687,10.465245 0 1 1 40.934855,16.317635 z"
     transform="matrix(0.5952381,0,0,1.1651917,0.7475174,27.696892)" />
  <path
     style="fill:none;fill-rule:evenodd;stroke:#000000;stroke-width:0.8671726px;stroke-linecap:butt;stroke-linejoin:miter;stroke-opacity:1"
     d="M 93.196594,12.933961 L 93.414639,48.367242"
     id="path5072"
     inkscape:connector-type="polyline" />
  <path
     transform="matrix(0.5952381,0,0,1.1651917,68.570626,-4.9535036)"
     d="M 40.934855,16.317635 A 19.448687,10.465245 0 1 1 2.0374813,16.317635 A 19.448687,10.465245 0 1 1 40.934855,16.317635 z"
     sodipodi:ry="10.465245"
     sodipodi:rx="19.448687"
     sodipodi:cy="16.317635"
     sodipodi:cx="21.486168"
     id="path5074"
     style="opacity:1;fill:#ffffff"
     sodipodi:type="arc" />
  <path
     style="fill:none;fill-rule:evenodd;stroke:#000000;stroke-width:1.00222075px;stroke-linecap:butt;stroke-linejoin:miter;stroke-opacity:1"
     d="M 82.658076,1.3712384 L 12.164258,1.3564663"
     id="path5076"
     inkscape:connector-type="polyline" />
  <path
     style="fill:none;fill-rule:evenodd;stroke:#000000;stroke-width:0.91211373px;stroke-linecap:butt;stroke-linejoin:miter;stroke-opacity:1"
     d="M 1.522159,12.903159 L 1.5180592,48.02404"
     id="path5082"
     inkscape:connector-type="polyline" />
  <path
     style="fill:none;fill-rule:evenodd;stroke:#000000;stroke-width:0.94699144px;stroke-linecap:butt;stroke-linejoin:miter;stroke-opacity:1"
     d="M 12.939286,59.421943 L 82.59422,59.343221"
     id="path5084"
     inkscape:connector-type="polyline" />
  <rect
     style="opacity:1;fill:#ffffff"
     id="rect5086"
     width="5.2527571"
     height="34.460014"
     x="1.999081"
     y="13.318016" />
  <rect
     style="opacity:1;fill:#ffffff"
     id="rect5088"
     width="68.48996"
     height="6.0375905"
     x="12.194899"
     y="1.8598738" />
  <rect
     style="opacity:1;fill:#ffffff"
     id="rect5090"
     width="8.3823528"
     height="31.490557"
     x="84.570541"
     y="13.745176" />
  <rect
     style="opacity:1;fill:#ffffff"
     id="rect5092"
     width="68.347961"
     height="3.2306986"
     x="14.27204"
     y="55.655312" />
</svg>
